<mxfile host="app.diagrams.net" modified="2022-09-21T08:16:46.845Z" agent="5.0 (Macintosh; Intel Mac OS X 10_15_7) AppleWebKit/605.1.15 (KHTML, like Gecko) Version/15.6.1 Safari/605.1.15" etag="sBM4TiG9U3WieV6Csj7X" version="20.3.3" type="github">
  <diagram id="xcQuriU0oQv12EpbVyYx" name="Page-1">
    <mxGraphModel dx="830" dy="768" grid="1" gridSize="10" guides="1" tooltips="1" connect="1" arrows="1" fold="1" page="1" pageScale="1" pageWidth="850" pageHeight="1100" math="0" shadow="0">
      <root>
        <mxCell id="0" />
        <mxCell id="1" parent="0" />
        <mxCell id="ZXUftcu4xDOtaX3n_nfg-2" value="HadesBaseAppWidget" style="swimlane;fontStyle=1;align=center;verticalAlign=top;childLayout=stackLayout;horizontal=1;startSize=26;horizontalStack=0;resizeParent=1;resizeParentMax=0;resizeLast=0;collapsible=1;marginBottom=0;" parent="1" vertex="1">
          <mxGeometry x="360" y="310" width="160" height="86" as="geometry" />
        </mxCell>
        <mxCell id="ZXUftcu4xDOtaX3n_nfg-3" value="+ field: type" style="text;strokeColor=none;fillColor=none;align=left;verticalAlign=top;spacingLeft=4;spacingRight=4;overflow=hidden;rotatable=0;points=[[0,0.5],[1,0.5]];portConstraint=eastwest;" parent="ZXUftcu4xDOtaX3n_nfg-2" vertex="1">
          <mxGeometry y="26" width="160" height="26" as="geometry" />
        </mxCell>
        <mxCell id="ZXUftcu4xDOtaX3n_nfg-4" value="" style="line;strokeWidth=1;fillColor=none;align=left;verticalAlign=middle;spacingTop=-1;spacingLeft=3;spacingRight=3;rotatable=0;labelPosition=right;points=[];portConstraint=eastwest;strokeColor=inherit;" parent="ZXUftcu4xDOtaX3n_nfg-2" vertex="1">
          <mxGeometry y="52" width="160" height="8" as="geometry" />
        </mxCell>
        <mxCell id="ZXUftcu4xDOtaX3n_nfg-5" value="+ method(type): type" style="text;strokeColor=none;fillColor=none;align=left;verticalAlign=top;spacingLeft=4;spacingRight=4;overflow=hidden;rotatable=0;points=[[0,0.5],[1,0.5]];portConstraint=eastwest;" parent="ZXUftcu4xDOtaX3n_nfg-2" vertex="1">
          <mxGeometry y="60" width="160" height="26" as="geometry" />
        </mxCell>
        <mxCell id="ZXUftcu4xDOtaX3n_nfg-12" value="AppWidgetProvider" style="swimlane;fontStyle=0;childLayout=stackLayout;horizontal=1;startSize=26;fillColor=none;horizontalStack=0;resizeParent=1;resizeParentMax=0;resizeLast=0;collapsible=1;marginBottom=0;" parent="1" vertex="1">
          <mxGeometry x="270" y="50" width="330" height="208" as="geometry" />
        </mxCell>
        <mxCell id="ZXUftcu4xDOtaX3n_nfg-13" value="onReceive(Context context, Intent intent)" style="text;strokeColor=none;fillColor=none;align=left;verticalAlign=top;spacingLeft=4;spacingRight=4;overflow=hidden;rotatable=0;points=[[0,0.5],[1,0.5]];portConstraint=eastwest;" parent="ZXUftcu4xDOtaX3n_nfg-12" vertex="1">
          <mxGeometry y="26" width="330" height="26" as="geometry" />
        </mxCell>
        <mxCell id="ZXUftcu4xDOtaX3n_nfg-14" value="onUpdate(Context context, AppWidgetManager appWidgetManager, int[] appWidgetIds)" style="text;strokeColor=none;fillColor=none;align=left;verticalAlign=top;spacingLeft=4;spacingRight=4;overflow=hidden;rotatable=0;points=[[0,0.5],[1,0.5]];portConstraint=eastwest;" parent="ZXUftcu4xDOtaX3n_nfg-12" vertex="1">
          <mxGeometry y="52" width="330" height="26" as="geometry" />
        </mxCell>
        <mxCell id="ZXUftcu4xDOtaX3n_nfg-15" value="onAppWidgetOptionsChanged(Context context, AppWidgetManager appWidgetManager, int appWidgetId, Bundle newOptions)" style="text;strokeColor=none;fillColor=none;align=left;verticalAlign=top;spacingLeft=4;spacingRight=4;overflow=hidden;rotatable=0;points=[[0,0.5],[1,0.5]];portConstraint=eastwest;" parent="ZXUftcu4xDOtaX3n_nfg-12" vertex="1">
          <mxGeometry y="78" width="330" height="26" as="geometry" />
        </mxCell>
        <mxCell id="ZXUftcu4xDOtaX3n_nfg-16" value="onDeleted(Context context, int[] appWidgetIds)" style="text;strokeColor=none;fillColor=none;align=left;verticalAlign=top;spacingLeft=4;spacingRight=4;overflow=hidden;rotatable=0;points=[[0,0.5],[1,0.5]];portConstraint=eastwest;" parent="ZXUftcu4xDOtaX3n_nfg-12" vertex="1">
          <mxGeometry y="104" width="330" height="26" as="geometry" />
        </mxCell>
        <mxCell id="ZXUftcu4xDOtaX3n_nfg-17" value="onEnabled(Context context)" style="text;strokeColor=none;fillColor=none;align=left;verticalAlign=top;spacingLeft=4;spacingRight=4;overflow=hidden;rotatable=0;points=[[0,0.5],[1,0.5]];portConstraint=eastwest;" parent="ZXUftcu4xDOtaX3n_nfg-12" vertex="1">
          <mxGeometry y="130" width="330" height="26" as="geometry" />
        </mxCell>
        <mxCell id="ZXUftcu4xDOtaX3n_nfg-18" value="onDisabled(Context context)" style="text;strokeColor=none;fillColor=none;align=left;verticalAlign=top;spacingLeft=4;spacingRight=4;overflow=hidden;rotatable=0;points=[[0,0.5],[1,0.5]];portConstraint=eastwest;" parent="ZXUftcu4xDOtaX3n_nfg-12" vertex="1">
          <mxGeometry y="156" width="330" height="26" as="geometry" />
        </mxCell>
        <mxCell id="ZXUftcu4xDOtaX3n_nfg-19" value="onRestored(Context context, int[] oldWidgetIds, int[] newWidgetIds)" style="text;strokeColor=none;fillColor=none;align=left;verticalAlign=top;spacingLeft=4;spacingRight=4;overflow=hidden;rotatable=0;points=[[0,0.5],[1,0.5]];portConstraint=eastwest;" parent="ZXUftcu4xDOtaX3n_nfg-12" vertex="1">
          <mxGeometry y="182" width="330" height="26" as="geometry" />
        </mxCell>
        <mxCell id="ZXUftcu4xDOtaX3n_nfg-60" style="edgeStyle=orthogonalEdgeStyle;rounded=0;orthogonalLoop=1;jettySize=auto;html=1;exitX=0.5;exitY=0;exitDx=0;exitDy=0;" parent="1" source="ZXUftcu4xDOtaX3n_nfg-20" target="ZXUftcu4xDOtaX3n_nfg-2" edge="1">
          <mxGeometry relative="1" as="geometry" />
        </mxCell>
        <mxCell id="ZXUftcu4xDOtaX3n_nfg-20" value="AbsMagicSaleWidget" style="swimlane;fontStyle=1;align=center;verticalAlign=top;childLayout=stackLayout;horizontal=1;startSize=26;horizontalStack=0;resizeParent=1;resizeParentMax=0;resizeLast=0;collapsible=1;marginBottom=0;" parent="1" vertex="1">
          <mxGeometry x="360" y="440" width="160" height="86" as="geometry" />
        </mxCell>
        <mxCell id="ZXUftcu4xDOtaX3n_nfg-21" value="+ field: type" style="text;strokeColor=none;fillColor=none;align=left;verticalAlign=top;spacingLeft=4;spacingRight=4;overflow=hidden;rotatable=0;points=[[0,0.5],[1,0.5]];portConstraint=eastwest;" parent="ZXUftcu4xDOtaX3n_nfg-20" vertex="1">
          <mxGeometry y="26" width="160" height="26" as="geometry" />
        </mxCell>
        <mxCell id="ZXUftcu4xDOtaX3n_nfg-22" value="" style="line;strokeWidth=1;fillColor=none;align=left;verticalAlign=middle;spacingTop=-1;spacingLeft=3;spacingRight=3;rotatable=0;labelPosition=right;points=[];portConstraint=eastwest;strokeColor=inherit;" parent="ZXUftcu4xDOtaX3n_nfg-20" vertex="1">
          <mxGeometry y="52" width="160" height="8" as="geometry" />
        </mxCell>
        <mxCell id="ZXUftcu4xDOtaX3n_nfg-23" value="+ method(type): type" style="text;strokeColor=none;fillColor=none;align=left;verticalAlign=top;spacingLeft=4;spacingRight=4;overflow=hidden;rotatable=0;points=[[0,0.5],[1,0.5]];portConstraint=eastwest;" parent="ZXUftcu4xDOtaX3n_nfg-20" vertex="1">
          <mxGeometry y="60" width="160" height="26" as="geometry" />
        </mxCell>
        <mxCell id="ZXUftcu4xDOtaX3n_nfg-100" style="edgeStyle=orthogonalEdgeStyle;rounded=0;orthogonalLoop=1;jettySize=auto;html=1;exitX=0.5;exitY=0;exitDx=0;exitDy=0;" parent="1" source="ZXUftcu4xDOtaX3n_nfg-24" target="ZXUftcu4xDOtaX3n_nfg-2" edge="1">
          <mxGeometry relative="1" as="geometry" />
        </mxCell>
        <mxCell id="ZXUftcu4xDOtaX3n_nfg-24" value="AssistantWidget" style="swimlane;fontStyle=1;align=center;verticalAlign=top;childLayout=stackLayout;horizontal=1;startSize=26;horizontalStack=0;resizeParent=1;resizeParentMax=0;resizeLast=0;collapsible=1;marginBottom=0;" parent="1" vertex="1">
          <mxGeometry y="440" width="160" height="86" as="geometry" />
        </mxCell>
        <mxCell id="ZXUftcu4xDOtaX3n_nfg-25" value="+ field: type" style="text;strokeColor=none;fillColor=none;align=left;verticalAlign=top;spacingLeft=4;spacingRight=4;overflow=hidden;rotatable=0;points=[[0,0.5],[1,0.5]];portConstraint=eastwest;" parent="ZXUftcu4xDOtaX3n_nfg-24" vertex="1">
          <mxGeometry y="26" width="160" height="26" as="geometry" />
        </mxCell>
        <mxCell id="ZXUftcu4xDOtaX3n_nfg-26" value="" style="line;strokeWidth=1;fillColor=none;align=left;verticalAlign=middle;spacingTop=-1;spacingLeft=3;spacingRight=3;rotatable=0;labelPosition=right;points=[];portConstraint=eastwest;strokeColor=inherit;" parent="ZXUftcu4xDOtaX3n_nfg-24" vertex="1">
          <mxGeometry y="52" width="160" height="8" as="geometry" />
        </mxCell>
        <mxCell id="ZXUftcu4xDOtaX3n_nfg-27" value="+ method(type): type" style="text;strokeColor=none;fillColor=none;align=left;verticalAlign=top;spacingLeft=4;spacingRight=4;overflow=hidden;rotatable=0;points=[[0,0.5],[1,0.5]];portConstraint=eastwest;" parent="ZXUftcu4xDOtaX3n_nfg-24" vertex="1">
          <mxGeometry y="60" width="160" height="26" as="geometry" />
        </mxCell>
        <mxCell id="ZXUftcu4xDOtaX3n_nfg-99" style="edgeStyle=orthogonalEdgeStyle;rounded=0;orthogonalLoop=1;jettySize=auto;html=1;exitX=0.5;exitY=0;exitDx=0;exitDy=0;" parent="1" source="ZXUftcu4xDOtaX3n_nfg-28" target="ZXUftcu4xDOtaX3n_nfg-2" edge="1">
          <mxGeometry relative="1" as="geometry" />
        </mxCell>
        <mxCell id="ZXUftcu4xDOtaX3n_nfg-28" value="OrderAppWidget" style="swimlane;fontStyle=1;align=center;verticalAlign=top;childLayout=stackLayout;horizontal=1;startSize=26;horizontalStack=0;resizeParent=1;resizeParentMax=0;resizeLast=0;collapsible=1;marginBottom=0;" parent="1" vertex="1">
          <mxGeometry x="180" y="440" width="160" height="86" as="geometry" />
        </mxCell>
        <mxCell id="ZXUftcu4xDOtaX3n_nfg-29" value="+ field: type" style="text;strokeColor=none;fillColor=none;align=left;verticalAlign=top;spacingLeft=4;spacingRight=4;overflow=hidden;rotatable=0;points=[[0,0.5],[1,0.5]];portConstraint=eastwest;" parent="ZXUftcu4xDOtaX3n_nfg-28" vertex="1">
          <mxGeometry y="26" width="160" height="26" as="geometry" />
        </mxCell>
        <mxCell id="ZXUftcu4xDOtaX3n_nfg-30" value="" style="line;strokeWidth=1;fillColor=none;align=left;verticalAlign=middle;spacingTop=-1;spacingLeft=3;spacingRight=3;rotatable=0;labelPosition=right;points=[];portConstraint=eastwest;strokeColor=inherit;" parent="ZXUftcu4xDOtaX3n_nfg-28" vertex="1">
          <mxGeometry y="52" width="160" height="8" as="geometry" />
        </mxCell>
        <mxCell id="ZXUftcu4xDOtaX3n_nfg-31" value="+ method(type): type" style="text;strokeColor=none;fillColor=none;align=left;verticalAlign=top;spacingLeft=4;spacingRight=4;overflow=hidden;rotatable=0;points=[[0,0.5],[1,0.5]];portConstraint=eastwest;" parent="ZXUftcu4xDOtaX3n_nfg-28" vertex="1">
          <mxGeometry y="60" width="160" height="26" as="geometry" />
        </mxCell>
        <mxCell id="ZXUftcu4xDOtaX3n_nfg-101" style="edgeStyle=orthogonalEdgeStyle;rounded=0;orthogonalLoop=1;jettySize=auto;html=1;exitX=0.5;exitY=0;exitDx=0;exitDy=0;" parent="1" source="ZXUftcu4xDOtaX3n_nfg-32" target="ZXUftcu4xDOtaX3n_nfg-2" edge="1">
          <mxGeometry relative="1" as="geometry" />
        </mxCell>
        <mxCell id="ZXUftcu4xDOtaX3n_nfg-32" value="QuickWayWidget" style="swimlane;fontStyle=1;align=center;verticalAlign=top;childLayout=stackLayout;horizontal=1;startSize=26;horizontalStack=0;resizeParent=1;resizeParentMax=0;resizeLast=0;collapsible=1;marginBottom=0;" parent="1" vertex="1">
          <mxGeometry x="540" y="440" width="160" height="86" as="geometry" />
        </mxCell>
        <mxCell id="ZXUftcu4xDOtaX3n_nfg-33" value="+ field: type" style="text;strokeColor=none;fillColor=none;align=left;verticalAlign=top;spacingLeft=4;spacingRight=4;overflow=hidden;rotatable=0;points=[[0,0.5],[1,0.5]];portConstraint=eastwest;" parent="ZXUftcu4xDOtaX3n_nfg-32" vertex="1">
          <mxGeometry y="26" width="160" height="26" as="geometry" />
        </mxCell>
        <mxCell id="ZXUftcu4xDOtaX3n_nfg-34" value="" style="line;strokeWidth=1;fillColor=none;align=left;verticalAlign=middle;spacingTop=-1;spacingLeft=3;spacingRight=3;rotatable=0;labelPosition=right;points=[];portConstraint=eastwest;strokeColor=inherit;" parent="ZXUftcu4xDOtaX3n_nfg-32" vertex="1">
          <mxGeometry y="52" width="160" height="8" as="geometry" />
        </mxCell>
        <mxCell id="ZXUftcu4xDOtaX3n_nfg-35" value="+ method(type): type" style="text;strokeColor=none;fillColor=none;align=left;verticalAlign=top;spacingLeft=4;spacingRight=4;overflow=hidden;rotatable=0;points=[[0,0.5],[1,0.5]];portConstraint=eastwest;" parent="ZXUftcu4xDOtaX3n_nfg-32" vertex="1">
          <mxGeometry y="60" width="160" height="26" as="geometry" />
        </mxCell>
        <mxCell id="ZXUftcu4xDOtaX3n_nfg-56" style="edgeStyle=orthogonalEdgeStyle;rounded=0;orthogonalLoop=1;jettySize=auto;html=1;exitX=0.5;exitY=0;exitDx=0;exitDy=0;" parent="1" source="ZXUftcu4xDOtaX3n_nfg-36" target="ZXUftcu4xDOtaX3n_nfg-20" edge="1">
          <mxGeometry relative="1" as="geometry" />
        </mxCell>
        <mxCell id="ZXUftcu4xDOtaX3n_nfg-36" value="Sale11Widget" style="swimlane;fontStyle=1;align=center;verticalAlign=top;childLayout=stackLayout;horizontal=1;startSize=26;horizontalStack=0;resizeParent=1;resizeParentMax=0;resizeLast=0;collapsible=1;marginBottom=0;" parent="1" vertex="1">
          <mxGeometry x="190" y="630" width="160" height="86" as="geometry" />
        </mxCell>
        <mxCell id="ZXUftcu4xDOtaX3n_nfg-37" value="+ field: type" style="text;strokeColor=none;fillColor=none;align=left;verticalAlign=top;spacingLeft=4;spacingRight=4;overflow=hidden;rotatable=0;points=[[0,0.5],[1,0.5]];portConstraint=eastwest;" parent="ZXUftcu4xDOtaX3n_nfg-36" vertex="1">
          <mxGeometry y="26" width="160" height="26" as="geometry" />
        </mxCell>
        <mxCell id="ZXUftcu4xDOtaX3n_nfg-38" value="" style="line;strokeWidth=1;fillColor=none;align=left;verticalAlign=middle;spacingTop=-1;spacingLeft=3;spacingRight=3;rotatable=0;labelPosition=right;points=[];portConstraint=eastwest;strokeColor=inherit;" parent="ZXUftcu4xDOtaX3n_nfg-36" vertex="1">
          <mxGeometry y="52" width="160" height="8" as="geometry" />
        </mxCell>
        <mxCell id="ZXUftcu4xDOtaX3n_nfg-39" value="+ method(type): type" style="text;strokeColor=none;fillColor=none;align=left;verticalAlign=top;spacingLeft=4;spacingRight=4;overflow=hidden;rotatable=0;points=[[0,0.5],[1,0.5]];portConstraint=eastwest;" parent="ZXUftcu4xDOtaX3n_nfg-36" vertex="1">
          <mxGeometry y="60" width="160" height="26" as="geometry" />
        </mxCell>
        <mxCell id="ZXUftcu4xDOtaX3n_nfg-58" style="edgeStyle=orthogonalEdgeStyle;rounded=0;orthogonalLoop=1;jettySize=auto;html=1;exitX=0.5;exitY=0;exitDx=0;exitDy=0;" parent="1" source="ZXUftcu4xDOtaX3n_nfg-44" target="ZXUftcu4xDOtaX3n_nfg-20" edge="1">
          <mxGeometry relative="1" as="geometry" />
        </mxCell>
        <mxCell id="ZXUftcu4xDOtaX3n_nfg-44" value="Sale41Widget" style="swimlane;fontStyle=1;align=center;verticalAlign=top;childLayout=stackLayout;horizontal=1;startSize=26;horizontalStack=0;resizeParent=1;resizeParentMax=0;resizeLast=0;collapsible=1;marginBottom=0;" parent="1" vertex="1">
          <mxGeometry x="360" y="630" width="160" height="86" as="geometry" />
        </mxCell>
        <mxCell id="ZXUftcu4xDOtaX3n_nfg-45" value="+ field: type" style="text;strokeColor=none;fillColor=none;align=left;verticalAlign=top;spacingLeft=4;spacingRight=4;overflow=hidden;rotatable=0;points=[[0,0.5],[1,0.5]];portConstraint=eastwest;" parent="ZXUftcu4xDOtaX3n_nfg-44" vertex="1">
          <mxGeometry y="26" width="160" height="26" as="geometry" />
        </mxCell>
        <mxCell id="ZXUftcu4xDOtaX3n_nfg-46" value="" style="line;strokeWidth=1;fillColor=none;align=left;verticalAlign=middle;spacingTop=-1;spacingLeft=3;spacingRight=3;rotatable=0;labelPosition=right;points=[];portConstraint=eastwest;strokeColor=inherit;" parent="ZXUftcu4xDOtaX3n_nfg-44" vertex="1">
          <mxGeometry y="52" width="160" height="8" as="geometry" />
        </mxCell>
        <mxCell id="ZXUftcu4xDOtaX3n_nfg-47" value="+ method(type): type" style="text;strokeColor=none;fillColor=none;align=left;verticalAlign=top;spacingLeft=4;spacingRight=4;overflow=hidden;rotatable=0;points=[[0,0.5],[1,0.5]];portConstraint=eastwest;" parent="ZXUftcu4xDOtaX3n_nfg-44" vertex="1">
          <mxGeometry y="60" width="160" height="26" as="geometry" />
        </mxCell>
        <mxCell id="ZXUftcu4xDOtaX3n_nfg-102" style="edgeStyle=orthogonalEdgeStyle;rounded=0;orthogonalLoop=1;jettySize=auto;html=1;exitX=0.5;exitY=0;exitDx=0;exitDy=0;" parent="1" source="ZXUftcu4xDOtaX3n_nfg-48" target="ZXUftcu4xDOtaX3n_nfg-2" edge="1">
          <mxGeometry relative="1" as="geometry" />
        </mxCell>
        <mxCell id="ZXUftcu4xDOtaX3n_nfg-48" value="SaleAppWidget" style="swimlane;fontStyle=1;align=center;verticalAlign=top;childLayout=stackLayout;horizontal=1;startSize=26;horizontalStack=0;resizeParent=1;resizeParentMax=0;resizeLast=0;collapsible=1;marginBottom=0;" parent="1" vertex="1">
          <mxGeometry x="720" y="440" width="160" height="86" as="geometry" />
        </mxCell>
        <mxCell id="ZXUftcu4xDOtaX3n_nfg-49" value="+ field: type" style="text;strokeColor=none;fillColor=none;align=left;verticalAlign=top;spacingLeft=4;spacingRight=4;overflow=hidden;rotatable=0;points=[[0,0.5],[1,0.5]];portConstraint=eastwest;" parent="ZXUftcu4xDOtaX3n_nfg-48" vertex="1">
          <mxGeometry y="26" width="160" height="26" as="geometry" />
        </mxCell>
        <mxCell id="ZXUftcu4xDOtaX3n_nfg-50" value="" style="line;strokeWidth=1;fillColor=none;align=left;verticalAlign=middle;spacingTop=-1;spacingLeft=3;spacingRight=3;rotatable=0;labelPosition=right;points=[];portConstraint=eastwest;strokeColor=inherit;" parent="ZXUftcu4xDOtaX3n_nfg-48" vertex="1">
          <mxGeometry y="52" width="160" height="8" as="geometry" />
        </mxCell>
        <mxCell id="ZXUftcu4xDOtaX3n_nfg-51" value="+ method(type): type" style="text;strokeColor=none;fillColor=none;align=left;verticalAlign=top;spacingLeft=4;spacingRight=4;overflow=hidden;rotatable=0;points=[[0,0.5],[1,0.5]];portConstraint=eastwest;" parent="ZXUftcu4xDOtaX3n_nfg-48" vertex="1">
          <mxGeometry y="60" width="160" height="26" as="geometry" />
        </mxCell>
        <mxCell id="ZXUftcu4xDOtaX3n_nfg-59" style="edgeStyle=orthogonalEdgeStyle;rounded=0;orthogonalLoop=1;jettySize=auto;html=1;exitX=0.5;exitY=0;exitDx=0;exitDy=0;" parent="1" source="ZXUftcu4xDOtaX3n_nfg-52" target="ZXUftcu4xDOtaX3n_nfg-20" edge="1">
          <mxGeometry relative="1" as="geometry" />
        </mxCell>
        <mxCell id="ZXUftcu4xDOtaX3n_nfg-52" value="StickyWidget" style="swimlane;fontStyle=1;align=center;verticalAlign=top;childLayout=stackLayout;horizontal=1;startSize=26;horizontalStack=0;resizeParent=1;resizeParentMax=0;resizeLast=0;collapsible=1;marginBottom=0;" parent="1" vertex="1">
          <mxGeometry x="530" y="630" width="160" height="86" as="geometry" />
        </mxCell>
        <mxCell id="ZXUftcu4xDOtaX3n_nfg-53" value="+ field: type" style="text;strokeColor=none;fillColor=none;align=left;verticalAlign=top;spacingLeft=4;spacingRight=4;overflow=hidden;rotatable=0;points=[[0,0.5],[1,0.5]];portConstraint=eastwest;" parent="ZXUftcu4xDOtaX3n_nfg-52" vertex="1">
          <mxGeometry y="26" width="160" height="26" as="geometry" />
        </mxCell>
        <mxCell id="ZXUftcu4xDOtaX3n_nfg-54" value="" style="line;strokeWidth=1;fillColor=none;align=left;verticalAlign=middle;spacingTop=-1;spacingLeft=3;spacingRight=3;rotatable=0;labelPosition=right;points=[];portConstraint=eastwest;strokeColor=inherit;" parent="ZXUftcu4xDOtaX3n_nfg-52" vertex="1">
          <mxGeometry y="52" width="160" height="8" as="geometry" />
        </mxCell>
        <mxCell id="ZXUftcu4xDOtaX3n_nfg-55" value="+ method(type): type" style="text;strokeColor=none;fillColor=none;align=left;verticalAlign=top;spacingLeft=4;spacingRight=4;overflow=hidden;rotatable=0;points=[[0,0.5],[1,0.5]];portConstraint=eastwest;" parent="ZXUftcu4xDOtaX3n_nfg-52" vertex="1">
          <mxGeometry y="60" width="160" height="26" as="geometry" />
        </mxCell>
        <mxCell id="ZXUftcu4xDOtaX3n_nfg-61" value="" style="shape=table;html=1;whiteSpace=wrap;startSize=0;container=1;collapsible=0;childLayout=tableLayout;" parent="1" vertex="1">
          <mxGeometry x="700" y="80" width="440" height="280" as="geometry" />
        </mxCell>
        <mxCell id="ZXUftcu4xDOtaX3n_nfg-62" value="" style="shape=tableRow;horizontal=0;startSize=0;swimlaneHead=0;swimlaneBody=0;top=0;left=0;bottom=0;right=0;collapsible=0;dropTarget=0;fillColor=none;points=[[0,0.5],[1,0.5]];portConstraint=eastwest;" parent="ZXUftcu4xDOtaX3n_nfg-61" vertex="1">
          <mxGeometry width="440" height="40" as="geometry" />
        </mxCell>
        <mxCell id="ZXUftcu4xDOtaX3n_nfg-63" value="OrderAppWidget" style="shape=partialRectangle;html=1;whiteSpace=wrap;connectable=0;fillColor=none;top=0;left=0;bottom=0;right=0;overflow=hidden;" parent="ZXUftcu4xDOtaX3n_nfg-62" vertex="1">
          <mxGeometry width="100" height="40" as="geometry">
            <mxRectangle width="100" height="40" as="alternateBounds" />
          </mxGeometry>
        </mxCell>
        <mxCell id="ZXUftcu4xDOtaX3n_nfg-64" value="xml/order_app_widget_info" style="shape=partialRectangle;html=1;whiteSpace=wrap;connectable=0;fillColor=none;top=0;left=0;bottom=0;right=0;overflow=hidden;" parent="ZXUftcu4xDOtaX3n_nfg-62" vertex="1">
          <mxGeometry x="100" width="170" height="40" as="geometry">
            <mxRectangle width="170" height="40" as="alternateBounds" />
          </mxGeometry>
        </mxCell>
        <mxCell id="ZXUftcu4xDOtaX3n_nfg-103" value="3600000/1小时" style="shape=partialRectangle;html=1;whiteSpace=wrap;connectable=0;fillColor=none;top=0;left=0;bottom=0;right=0;overflow=hidden;" parent="ZXUftcu4xDOtaX3n_nfg-62" vertex="1">
          <mxGeometry x="270" width="170" height="40" as="geometry">
            <mxRectangle width="170" height="40" as="alternateBounds" />
          </mxGeometry>
        </mxCell>
        <mxCell id="ZXUftcu4xDOtaX3n_nfg-66" value="" style="shape=tableRow;horizontal=0;startSize=0;swimlaneHead=0;swimlaneBody=0;top=0;left=0;bottom=0;right=0;collapsible=0;dropTarget=0;fillColor=none;points=[[0,0.5],[1,0.5]];portConstraint=eastwest;" parent="ZXUftcu4xDOtaX3n_nfg-61" vertex="1">
          <mxGeometry y="40" width="440" height="40" as="geometry" />
        </mxCell>
        <mxCell id="ZXUftcu4xDOtaX3n_nfg-67" value="SaleAppWidget" style="shape=partialRectangle;html=1;whiteSpace=wrap;connectable=0;fillColor=none;top=0;left=0;bottom=0;right=0;overflow=hidden;" parent="ZXUftcu4xDOtaX3n_nfg-66" vertex="1">
          <mxGeometry width="100" height="40" as="geometry">
            <mxRectangle width="100" height="40" as="alternateBounds" />
          </mxGeometry>
        </mxCell>
        <mxCell id="ZXUftcu4xDOtaX3n_nfg-68" value="xml/sale_app_widget_info" style="shape=partialRectangle;html=1;whiteSpace=wrap;connectable=0;fillColor=none;top=0;left=0;bottom=0;right=0;overflow=hidden;" parent="ZXUftcu4xDOtaX3n_nfg-66" vertex="1">
          <mxGeometry x="100" width="170" height="40" as="geometry">
            <mxRectangle width="170" height="40" as="alternateBounds" />
          </mxGeometry>
        </mxCell>
        <mxCell id="ZXUftcu4xDOtaX3n_nfg-104" value="3600000" style="shape=partialRectangle;html=1;whiteSpace=wrap;connectable=0;fillColor=none;top=0;left=0;bottom=0;right=0;overflow=hidden;" parent="ZXUftcu4xDOtaX3n_nfg-66" vertex="1">
          <mxGeometry x="270" width="170" height="40" as="geometry">
            <mxRectangle width="170" height="40" as="alternateBounds" />
          </mxGeometry>
        </mxCell>
        <mxCell id="ZXUftcu4xDOtaX3n_nfg-70" value="" style="shape=tableRow;horizontal=0;startSize=0;swimlaneHead=0;swimlaneBody=0;top=0;left=0;bottom=0;right=0;collapsible=0;dropTarget=0;fillColor=none;points=[[0,0.5],[1,0.5]];portConstraint=eastwest;" parent="ZXUftcu4xDOtaX3n_nfg-61" vertex="1">
          <mxGeometry y="80" width="440" height="40" as="geometry" />
        </mxCell>
        <mxCell id="ZXUftcu4xDOtaX3n_nfg-71" value="Sale11Widget" style="shape=partialRectangle;html=1;whiteSpace=wrap;connectable=0;fillColor=none;top=0;left=0;bottom=0;right=0;overflow=hidden;" parent="ZXUftcu4xDOtaX3n_nfg-70" vertex="1">
          <mxGeometry width="100" height="40" as="geometry">
            <mxRectangle width="100" height="40" as="alternateBounds" />
          </mxGeometry>
        </mxCell>
        <mxCell id="ZXUftcu4xDOtaX3n_nfg-72" value="xml/sale11_app_widget_info" style="shape=partialRectangle;html=1;whiteSpace=wrap;connectable=0;fillColor=none;top=0;left=0;bottom=0;right=0;overflow=hidden;" parent="ZXUftcu4xDOtaX3n_nfg-70" vertex="1">
          <mxGeometry x="100" width="170" height="40" as="geometry">
            <mxRectangle width="170" height="40" as="alternateBounds" />
          </mxGeometry>
        </mxCell>
        <mxCell id="ZXUftcu4xDOtaX3n_nfg-105" value="3600000" style="shape=partialRectangle;html=1;whiteSpace=wrap;connectable=0;fillColor=none;top=0;left=0;bottom=0;right=0;overflow=hidden;" parent="ZXUftcu4xDOtaX3n_nfg-70" vertex="1">
          <mxGeometry x="270" width="170" height="40" as="geometry">
            <mxRectangle width="170" height="40" as="alternateBounds" />
          </mxGeometry>
        </mxCell>
        <mxCell id="ZXUftcu4xDOtaX3n_nfg-87" style="shape=tableRow;horizontal=0;startSize=0;swimlaneHead=0;swimlaneBody=0;top=0;left=0;bottom=0;right=0;collapsible=0;dropTarget=0;fillColor=none;points=[[0,0.5],[1,0.5]];portConstraint=eastwest;" parent="ZXUftcu4xDOtaX3n_nfg-61" vertex="1">
          <mxGeometry y="120" width="440" height="40" as="geometry" />
        </mxCell>
        <mxCell id="ZXUftcu4xDOtaX3n_nfg-88" value="Sale41Widget" style="shape=partialRectangle;html=1;whiteSpace=wrap;connectable=0;fillColor=none;top=0;left=0;bottom=0;right=0;overflow=hidden;" parent="ZXUftcu4xDOtaX3n_nfg-87" vertex="1">
          <mxGeometry width="100" height="40" as="geometry">
            <mxRectangle width="100" height="40" as="alternateBounds" />
          </mxGeometry>
        </mxCell>
        <mxCell id="ZXUftcu4xDOtaX3n_nfg-89" value="xml/sale41_app_widget_info" style="shape=partialRectangle;html=1;whiteSpace=wrap;connectable=0;fillColor=none;top=0;left=0;bottom=0;right=0;overflow=hidden;" parent="ZXUftcu4xDOtaX3n_nfg-87" vertex="1">
          <mxGeometry x="100" width="170" height="40" as="geometry">
            <mxRectangle width="170" height="40" as="alternateBounds" />
          </mxGeometry>
        </mxCell>
        <mxCell id="ZXUftcu4xDOtaX3n_nfg-106" value="3600000" style="shape=partialRectangle;html=1;whiteSpace=wrap;connectable=0;fillColor=none;top=0;left=0;bottom=0;right=0;overflow=hidden;" parent="ZXUftcu4xDOtaX3n_nfg-87" vertex="1">
          <mxGeometry x="270" width="170" height="40" as="geometry">
            <mxRectangle width="170" height="40" as="alternateBounds" />
          </mxGeometry>
        </mxCell>
        <mxCell id="ZXUftcu4xDOtaX3n_nfg-90" style="shape=tableRow;horizontal=0;startSize=0;swimlaneHead=0;swimlaneBody=0;top=0;left=0;bottom=0;right=0;collapsible=0;dropTarget=0;fillColor=none;points=[[0,0.5],[1,0.5]];portConstraint=eastwest;" parent="ZXUftcu4xDOtaX3n_nfg-61" vertex="1">
          <mxGeometry y="160" width="440" height="40" as="geometry" />
        </mxCell>
        <mxCell id="ZXUftcu4xDOtaX3n_nfg-91" value="AssistantWidget" style="shape=partialRectangle;html=1;whiteSpace=wrap;connectable=0;fillColor=none;top=0;left=0;bottom=0;right=0;overflow=hidden;" parent="ZXUftcu4xDOtaX3n_nfg-90" vertex="1">
          <mxGeometry width="100" height="40" as="geometry">
            <mxRectangle width="100" height="40" as="alternateBounds" />
          </mxGeometry>
        </mxCell>
        <mxCell id="ZXUftcu4xDOtaX3n_nfg-92" value="xml/assistant_app_widget_info" style="shape=partialRectangle;html=1;whiteSpace=wrap;connectable=0;fillColor=none;top=0;left=0;bottom=0;right=0;overflow=hidden;" parent="ZXUftcu4xDOtaX3n_nfg-90" vertex="1">
          <mxGeometry x="100" width="170" height="40" as="geometry">
            <mxRectangle width="170" height="40" as="alternateBounds" />
          </mxGeometry>
        </mxCell>
        <mxCell id="ZXUftcu4xDOtaX3n_nfg-107" value="3600000" style="shape=partialRectangle;html=1;whiteSpace=wrap;connectable=0;fillColor=none;top=0;left=0;bottom=0;right=0;overflow=hidden;" parent="ZXUftcu4xDOtaX3n_nfg-90" vertex="1">
          <mxGeometry x="270" width="170" height="40" as="geometry">
            <mxRectangle width="170" height="40" as="alternateBounds" />
          </mxGeometry>
        </mxCell>
        <mxCell id="ZXUftcu4xDOtaX3n_nfg-93" style="shape=tableRow;horizontal=0;startSize=0;swimlaneHead=0;swimlaneBody=0;top=0;left=0;bottom=0;right=0;collapsible=0;dropTarget=0;fillColor=none;points=[[0,0.5],[1,0.5]];portConstraint=eastwest;" parent="ZXUftcu4xDOtaX3n_nfg-61" vertex="1">
          <mxGeometry y="200" width="440" height="40" as="geometry" />
        </mxCell>
        <mxCell id="ZXUftcu4xDOtaX3n_nfg-94" value="StickyWidget" style="shape=partialRectangle;html=1;whiteSpace=wrap;connectable=0;fillColor=none;top=0;left=0;bottom=0;right=0;overflow=hidden;" parent="ZXUftcu4xDOtaX3n_nfg-93" vertex="1">
          <mxGeometry width="100" height="40" as="geometry">
            <mxRectangle width="100" height="40" as="alternateBounds" />
          </mxGeometry>
        </mxCell>
        <mxCell id="ZXUftcu4xDOtaX3n_nfg-95" value="xml/sticky_app_widget_info" style="shape=partialRectangle;html=1;whiteSpace=wrap;connectable=0;fillColor=none;top=0;left=0;bottom=0;right=0;overflow=hidden;" parent="ZXUftcu4xDOtaX3n_nfg-93" vertex="1">
          <mxGeometry x="100" width="170" height="40" as="geometry">
            <mxRectangle width="170" height="40" as="alternateBounds" />
          </mxGeometry>
        </mxCell>
        <mxCell id="ZXUftcu4xDOtaX3n_nfg-108" value="3600000" style="shape=partialRectangle;html=1;whiteSpace=wrap;connectable=0;fillColor=none;top=0;left=0;bottom=0;right=0;overflow=hidden;" parent="ZXUftcu4xDOtaX3n_nfg-93" vertex="1">
          <mxGeometry x="270" width="170" height="40" as="geometry">
            <mxRectangle width="170" height="40" as="alternateBounds" />
          </mxGeometry>
        </mxCell>
        <mxCell id="ZXUftcu4xDOtaX3n_nfg-96" style="shape=tableRow;horizontal=0;startSize=0;swimlaneHead=0;swimlaneBody=0;top=0;left=0;bottom=0;right=0;collapsible=0;dropTarget=0;fillColor=none;points=[[0,0.5],[1,0.5]];portConstraint=eastwest;" parent="ZXUftcu4xDOtaX3n_nfg-61" vertex="1">
          <mxGeometry y="240" width="440" height="40" as="geometry" />
        </mxCell>
        <mxCell id="ZXUftcu4xDOtaX3n_nfg-97" value="QuickWayWidget" style="shape=partialRectangle;html=1;whiteSpace=wrap;connectable=0;fillColor=none;top=0;left=0;bottom=0;right=0;overflow=hidden;" parent="ZXUftcu4xDOtaX3n_nfg-96" vertex="1">
          <mxGeometry width="100" height="40" as="geometry">
            <mxRectangle width="100" height="40" as="alternateBounds" />
          </mxGeometry>
        </mxCell>
        <mxCell id="ZXUftcu4xDOtaX3n_nfg-98" value="xml/qw11_app_widget_info" style="shape=partialRectangle;html=1;whiteSpace=wrap;connectable=0;fillColor=none;top=0;left=0;bottom=0;right=0;overflow=hidden;" parent="ZXUftcu4xDOtaX3n_nfg-96" vertex="1">
          <mxGeometry x="100" width="170" height="40" as="geometry">
            <mxRectangle width="170" height="40" as="alternateBounds" />
          </mxGeometry>
        </mxCell>
        <mxCell id="ZXUftcu4xDOtaX3n_nfg-109" value="86400000/24小时" style="shape=partialRectangle;html=1;whiteSpace=wrap;connectable=0;fillColor=none;top=0;left=0;bottom=0;right=0;overflow=hidden;" parent="ZXUftcu4xDOtaX3n_nfg-96" vertex="1">
          <mxGeometry x="270" width="170" height="40" as="geometry">
            <mxRectangle width="170" height="40" as="alternateBounds" />
          </mxGeometry>
        </mxCell>
        <mxCell id="YAcLPnXyGq9ZezCiwUSU-1" value="AppWidgetServiceImpl" style="shape=umlLifeline;perimeter=lifelinePerimeter;whiteSpace=wrap;html=1;container=1;collapsible=0;recursiveResize=0;outlineConnect=0;" vertex="1" parent="1">
          <mxGeometry x="140" y="770" width="170" height="520" as="geometry" />
        </mxCell>
        <mxCell id="YAcLPnXyGq9ZezCiwUSU-4" value="" style="html=1;points=[];perimeter=orthogonalPerimeter;" vertex="1" parent="YAcLPnXyGq9ZezCiwUSU-1">
          <mxGeometry x="80" y="150" width="10" height="270" as="geometry" />
        </mxCell>
        <mxCell id="YAcLPnXyGq9ZezCiwUSU-5" value="onPackageBroadcastReceived" style="edgeStyle=orthogonalEdgeStyle;html=1;align=left;spacingLeft=2;endArrow=block;rounded=0;entryX=1;entryY=0;" edge="1" target="YAcLPnXyGq9ZezCiwUSU-4" parent="YAcLPnXyGq9ZezCiwUSU-1">
          <mxGeometry relative="1" as="geometry">
            <mxPoint x="85" y="130" as="sourcePoint" />
            <Array as="points">
              <mxPoint x="115" y="130" />
            </Array>
          </mxGeometry>
        </mxCell>
        <mxCell id="YAcLPnXyGq9ZezCiwUSU-6" value="" style="html=1;points=[];perimeter=orthogonalPerimeter;" vertex="1" parent="YAcLPnXyGq9ZezCiwUSU-1">
          <mxGeometry x="85" y="180" width="10" height="230" as="geometry" />
        </mxCell>
        <mxCell id="YAcLPnXyGq9ZezCiwUSU-7" value="updateProvidersForPackageLocked" style="edgeStyle=orthogonalEdgeStyle;html=1;align=left;spacingLeft=2;endArrow=block;rounded=0;entryX=1;entryY=0;" edge="1" target="YAcLPnXyGq9ZezCiwUSU-6" parent="YAcLPnXyGq9ZezCiwUSU-1">
          <mxGeometry relative="1" as="geometry">
            <mxPoint x="90" y="150" as="sourcePoint" />
            <Array as="points">
              <mxPoint x="115" y="160" />
            </Array>
          </mxGeometry>
        </mxCell>
        <mxCell id="YAcLPnXyGq9ZezCiwUSU-8" value="" style="html=1;points=[];perimeter=orthogonalPerimeter;" vertex="1" parent="YAcLPnXyGq9ZezCiwUSU-1">
          <mxGeometry x="90" y="210" width="10" height="20" as="geometry" />
        </mxCell>
        <mxCell id="YAcLPnXyGq9ZezCiwUSU-9" value="parseProviderInfoXml" style="edgeStyle=orthogonalEdgeStyle;html=1;align=left;spacingLeft=2;endArrow=block;rounded=0;entryX=1;entryY=0;" edge="1" target="YAcLPnXyGq9ZezCiwUSU-8" parent="YAcLPnXyGq9ZezCiwUSU-1">
          <mxGeometry relative="1" as="geometry">
            <mxPoint x="95" y="190" as="sourcePoint" />
            <Array as="points">
              <mxPoint x="125" y="190" />
            </Array>
          </mxGeometry>
        </mxCell>
        <mxCell id="YAcLPnXyGq9ZezCiwUSU-18" value="" style="html=1;points=[];perimeter=orthogonalPerimeter;" vertex="1" parent="YAcLPnXyGq9ZezCiwUSU-1">
          <mxGeometry x="90" y="290" width="10" height="20" as="geometry" />
        </mxCell>
        <mxCell id="YAcLPnXyGq9ZezCiwUSU-19" value="registerForBroadcastsLocked" style="edgeStyle=orthogonalEdgeStyle;html=1;align=left;spacingLeft=2;endArrow=block;rounded=0;entryX=1;entryY=0;" edge="1" target="YAcLPnXyGq9ZezCiwUSU-18" parent="YAcLPnXyGq9ZezCiwUSU-1">
          <mxGeometry relative="1" as="geometry">
            <mxPoint x="95" y="280" as="sourcePoint" />
            <Array as="points">
              <mxPoint x="125" y="280" />
            </Array>
          </mxGeometry>
        </mxCell>
        <mxCell id="YAcLPnXyGq9ZezCiwUSU-20" value="" style="html=1;points=[];perimeter=orthogonalPerimeter;" vertex="1" parent="YAcLPnXyGq9ZezCiwUSU-1">
          <mxGeometry x="90" y="250" width="10" height="20" as="geometry" />
        </mxCell>
        <mxCell id="YAcLPnXyGq9ZezCiwUSU-21" value="cancelBroadcasts" style="edgeStyle=orthogonalEdgeStyle;html=1;align=left;spacingLeft=2;endArrow=block;rounded=0;entryX=1;entryY=0;" edge="1" target="YAcLPnXyGq9ZezCiwUSU-20" parent="YAcLPnXyGq9ZezCiwUSU-1">
          <mxGeometry relative="1" as="geometry">
            <mxPoint x="95" y="240" as="sourcePoint" />
            <Array as="points">
              <mxPoint x="125" y="240" />
            </Array>
          </mxGeometry>
        </mxCell>
        <mxCell id="YAcLPnXyGq9ZezCiwUSU-26" value="" style="html=1;points=[];perimeter=orthogonalPerimeter;" vertex="1" parent="YAcLPnXyGq9ZezCiwUSU-1">
          <mxGeometry x="90" y="330" width="10" height="10" as="geometry" />
        </mxCell>
        <mxCell id="YAcLPnXyGq9ZezCiwUSU-27" value="scheduleNotifyProviderChangedLocked" style="edgeStyle=orthogonalEdgeStyle;html=1;align=left;spacingLeft=2;endArrow=block;rounded=0;entryX=1;entryY=0;" edge="1" target="YAcLPnXyGq9ZezCiwUSU-26" parent="YAcLPnXyGq9ZezCiwUSU-1" source="YAcLPnXyGq9ZezCiwUSU-6">
          <mxGeometry relative="1" as="geometry">
            <mxPoint x="95" y="340" as="sourcePoint" />
            <Array as="points">
              <mxPoint x="120" y="320" />
              <mxPoint x="120" y="330" />
            </Array>
          </mxGeometry>
        </mxCell>
        <mxCell id="YAcLPnXyGq9ZezCiwUSU-28" value="" style="html=1;points=[];perimeter=orthogonalPerimeter;" vertex="1" parent="YAcLPnXyGq9ZezCiwUSU-1">
          <mxGeometry x="90" y="360" width="10" height="30" as="geometry" />
        </mxCell>
        <mxCell id="YAcLPnXyGq9ZezCiwUSU-29" value="sendUpdateIntentLocked" style="edgeStyle=orthogonalEdgeStyle;html=1;align=left;spacingLeft=2;endArrow=block;rounded=0;entryX=1;entryY=0;exitX=0.9;exitY=0.739;exitDx=0;exitDy=0;exitPerimeter=0;" edge="1" parent="YAcLPnXyGq9ZezCiwUSU-1" target="YAcLPnXyGq9ZezCiwUSU-28" source="YAcLPnXyGq9ZezCiwUSU-6">
          <mxGeometry relative="1" as="geometry">
            <mxPoint x="105" y="330" as="sourcePoint" />
            <Array as="points">
              <mxPoint x="120" y="350" />
              <mxPoint x="120" y="360" />
            </Array>
          </mxGeometry>
        </mxCell>
        <mxCell id="YAcLPnXyGq9ZezCiwUSU-2" value="Intent.ACTION_PACKAGE_ADDED&lt;br&gt;Intent.ACTION_PACKAGE_CHANGED&lt;br&gt;Intent.ACTION_PACKAGE_REMOVED" style="html=1;verticalAlign=bottom;startArrow=circle;startFill=1;endArrow=open;startSize=6;endSize=8;rounded=0;align=left;" edge="1" parent="1" target="YAcLPnXyGq9ZezCiwUSU-1">
          <mxGeometry x="-1" y="14" width="80" relative="1" as="geometry">
            <mxPoint x="70" y="900" as="sourcePoint" />
            <mxPoint x="460" y="900" as="targetPoint" />
            <mxPoint x="-10" y="4" as="offset" />
          </mxGeometry>
        </mxCell>
        <mxCell id="YAcLPnXyGq9ZezCiwUSU-10" value="获取manifest信息" style="text;html=1;strokeColor=none;fillColor=none;align=center;verticalAlign=middle;whiteSpace=wrap;rounded=0;" vertex="1" parent="1">
          <mxGeometry x="377.5" y="950" width="115" height="30" as="geometry" />
        </mxCell>
        <mxCell id="YAcLPnXyGq9ZezCiwUSU-11" value="updateProvidersForPackageLocked" style="rounded=1;whiteSpace=wrap;html=1;" vertex="1" parent="1">
          <mxGeometry x="1220" y="100" width="200" height="60" as="geometry" />
        </mxCell>
        <mxCell id="YAcLPnXyGq9ZezCiwUSU-12" value="queryIntentReceivers&lt;br&gt;AppWidgetManager.ACTION_APPWIDGET_UPDATE" style="rounded=1;whiteSpace=wrap;html=1;" vertex="1" parent="1">
          <mxGeometry x="1170" y="200" width="300" height="60" as="geometry" />
        </mxCell>
        <mxCell id="YAcLPnXyGq9ZezCiwUSU-13" value="List&amp;lt;ResolveInfo&amp;gt;" style="rounded=1;whiteSpace=wrap;html=1;" vertex="1" parent="1">
          <mxGeometry x="1260" y="290" width="120" height="60" as="geometry" />
        </mxCell>
        <mxCell id="YAcLPnXyGq9ZezCiwUSU-15" value="parseProviderInfoXml" style="rounded=1;whiteSpace=wrap;html=1;" vertex="1" parent="1">
          <mxGeometry x="1260" y="390" width="120" height="60" as="geometry" />
        </mxCell>
        <mxCell id="YAcLPnXyGq9ZezCiwUSU-16" value="provider.widgets.size()" style="rounded=1;whiteSpace=wrap;html=1;" vertex="1" parent="1">
          <mxGeometry x="1260" y="500" width="120" height="60" as="geometry" />
        </mxCell>
        <mxCell id="YAcLPnXyGq9ZezCiwUSU-17" value="mAlarmManager.cancel(provider.broadcast);&lt;br&gt;provider.broadcast" style="rounded=1;whiteSpace=wrap;html=1;" vertex="1" parent="1">
          <mxGeometry x="1270" y="600" width="120" height="60" as="geometry" />
        </mxCell>
        <mxCell id="YAcLPnXyGq9ZezCiwUSU-22" value="&lt;div&gt;mAlarmManager.cancel(provider.broadcast);&lt;/div&gt;&lt;div&gt;&amp;nbsp;provider.broadcast = null;&lt;/div&gt;" style="text;html=1;strokeColor=none;fillColor=none;align=left;verticalAlign=middle;whiteSpace=wrap;rounded=0;" vertex="1" parent="1">
          <mxGeometry x="370" y="1000" width="310" height="30" as="geometry" />
        </mxCell>
        <mxCell id="YAcLPnXyGq9ZezCiwUSU-24" value="&lt;div&gt;&amp;nbsp; &amp;nbsp; private void &lt;b&gt;registerForBroadcastsLocked&lt;/b&gt;(Provider provider, int[] appWidgetIds) {&lt;/div&gt;&lt;div&gt;&amp;nbsp; &amp;nbsp; &amp;nbsp; &amp;nbsp; if (provider.info.updatePeriodMillis &amp;gt; 0) {&lt;/div&gt;&lt;div&gt;&amp;nbsp; &amp;nbsp; &amp;nbsp; &amp;nbsp; &amp;nbsp; &amp;nbsp; // if this is the first instance, set the alarm. otherwise,&lt;/div&gt;&lt;div&gt;&amp;nbsp; &amp;nbsp; &amp;nbsp; &amp;nbsp; &amp;nbsp; &amp;nbsp; // rely on the fact that we&#39;ve already set it and that&lt;/div&gt;&lt;div&gt;&amp;nbsp; &amp;nbsp; &amp;nbsp; &amp;nbsp; &amp;nbsp; &amp;nbsp; // PendingIntent.getBroadcast will update the extras.&lt;/div&gt;&lt;div&gt;&amp;nbsp; &amp;nbsp; &amp;nbsp; &amp;nbsp; &amp;nbsp; &amp;nbsp; boolean alreadyRegistered = provider.broadcast != null;&lt;/div&gt;&lt;div&gt;&lt;b&gt;&amp;nbsp; &amp;nbsp; &amp;nbsp; &amp;nbsp; &amp;nbsp; &amp;nbsp; Intent intent = new Intent(AppWidgetManager.ACTION_APPWIDGET_UPDATE);&lt;/b&gt;&lt;/div&gt;&lt;div&gt;&lt;b&gt;&amp;nbsp; &amp;nbsp; &amp;nbsp; &amp;nbsp; &amp;nbsp; &amp;nbsp; intent.putExtra(AppWidgetManager.EXTRA_APPWIDGET_IDS, appWidgetIds);&lt;/b&gt;&lt;/div&gt;&lt;div&gt;&amp;nbsp; &amp;nbsp; &amp;nbsp; &amp;nbsp; &amp;nbsp; &amp;nbsp; intent.setComponent(provider.info.provider);&lt;/div&gt;&lt;div&gt;&amp;nbsp; &amp;nbsp; &amp;nbsp; &amp;nbsp; &amp;nbsp; &amp;nbsp; long token = Binder.clearCallingIdentity();&lt;/div&gt;&lt;div&gt;&amp;nbsp; &amp;nbsp; &amp;nbsp; &amp;nbsp; &amp;nbsp; &amp;nbsp; try {&lt;/div&gt;&lt;div&gt;&amp;nbsp; &amp;nbsp; &amp;nbsp; &amp;nbsp; &amp;nbsp; &amp;nbsp; &lt;b&gt;&amp;nbsp; &amp;nbsp; provider.broadcast = PendingIntent.getBroadcastAsUser(mContext, 1, intent,&lt;/b&gt;&lt;/div&gt;&lt;div&gt;&lt;b&gt;&amp;nbsp; &amp;nbsp; &amp;nbsp; &amp;nbsp; &amp;nbsp; &amp;nbsp; &amp;nbsp; &amp;nbsp; &amp;nbsp; &amp;nbsp; &amp;nbsp; &amp;nbsp; PendingIntent.FLAG_UPDATE_CURRENT, provider.info.getProfile());&lt;/b&gt;&lt;/div&gt;&lt;div&gt;&amp;nbsp; &amp;nbsp; &amp;nbsp; &amp;nbsp; &amp;nbsp; &amp;nbsp; } finally {&lt;/div&gt;&lt;div&gt;&amp;nbsp; &amp;nbsp; &amp;nbsp; &amp;nbsp; &amp;nbsp; &amp;nbsp; &amp;nbsp; &amp;nbsp; Binder.restoreCallingIdentity(token);&lt;/div&gt;&lt;div&gt;&amp;nbsp; &amp;nbsp; &amp;nbsp; &amp;nbsp; &amp;nbsp; &amp;nbsp; }&lt;/div&gt;&lt;div&gt;&amp;nbsp; &amp;nbsp; &amp;nbsp; &amp;nbsp; &amp;nbsp; &amp;nbsp; if (!alreadyRegistered) {&lt;/div&gt;&lt;div&gt;&amp;nbsp; &amp;nbsp; &amp;nbsp; &amp;nbsp; &amp;nbsp; &amp;nbsp; &amp;nbsp; &amp;nbsp; long period = provider.info.updatePeriodMillis;&lt;/div&gt;&lt;div&gt;&amp;nbsp; &amp;nbsp; &amp;nbsp; &amp;nbsp; &amp;nbsp; &amp;nbsp; &amp;nbsp; &amp;nbsp; if (period &amp;lt; MIN_UPDATE_PERIOD) {&lt;/div&gt;&lt;div&gt;&amp;nbsp; &amp;nbsp; &amp;nbsp; &amp;nbsp; &amp;nbsp; &amp;nbsp; &amp;nbsp; &amp;nbsp; &amp;nbsp; &amp;nbsp; period = MIN_UPDATE_PERIOD;&lt;/div&gt;&lt;div&gt;&amp;nbsp; &amp;nbsp; &amp;nbsp; &amp;nbsp; &amp;nbsp; &amp;nbsp; &amp;nbsp; &amp;nbsp; }&lt;/div&gt;&lt;div&gt;&amp;nbsp; &lt;b&gt;&amp;nbsp; &amp;nbsp; &amp;nbsp; &amp;nbsp; &amp;nbsp; &amp;nbsp; &amp;nbsp; mAlarmManager.setInexactRepeating(AlarmManager.ELAPSED_REALTIME_WAKEUP,&lt;/b&gt;&lt;/div&gt;&lt;div&gt;&lt;b&gt;&amp;nbsp; &amp;nbsp; &amp;nbsp; &amp;nbsp; &amp;nbsp; &amp;nbsp; &amp;nbsp; &amp;nbsp; &amp;nbsp; &amp;nbsp; &amp;nbsp; &amp;nbsp; SystemClock.elapsedRealtime() + period, period, provider.broadcast);&lt;/b&gt;&lt;/div&gt;&lt;div&gt;&amp;nbsp; &amp;nbsp; &amp;nbsp; &amp;nbsp; &amp;nbsp; &amp;nbsp; }&lt;/div&gt;&lt;div&gt;&amp;nbsp; &amp;nbsp; &amp;nbsp; &amp;nbsp; }&lt;/div&gt;&lt;div&gt;&amp;nbsp; &amp;nbsp; }&lt;/div&gt;" style="text;html=1;strokeColor=none;fillColor=none;align=left;verticalAlign=middle;whiteSpace=wrap;rounded=0;" vertex="1" parent="1">
          <mxGeometry x="270" y="1310" width="550" height="370" as="geometry" />
        </mxCell>
        <mxCell id="YAcLPnXyGq9ZezCiwUSU-25" value="bindAppWidgetId&lt;br&gt;onUserStarted&lt;br&gt;updateProvidersForPackageLocked" style="text;html=1;strokeColor=none;fillColor=none;align=center;verticalAlign=middle;whiteSpace=wrap;rounded=0;" vertex="1" parent="1">
          <mxGeometry x="140" y="1450" width="60" height="30" as="geometry" />
        </mxCell>
        <mxCell id="YAcLPnXyGq9ZezCiwUSU-30" value="AMS" style="shape=umlLifeline;perimeter=lifelinePerimeter;whiteSpace=wrap;html=1;container=1;collapsible=0;recursiveResize=0;outlineConnect=0;" vertex="1" parent="1">
          <mxGeometry x="600" y="770" width="100" height="440" as="geometry" />
        </mxCell>
        <mxCell id="YAcLPnXyGq9ZezCiwUSU-31" value="AlarmManager" style="shape=umlLifeline;perimeter=lifelinePerimeter;whiteSpace=wrap;html=1;container=1;collapsible=0;recursiveResize=0;outlineConnect=0;" vertex="1" parent="1">
          <mxGeometry x="740" y="770" width="100" height="450" as="geometry" />
        </mxCell>
        <mxCell id="YAcLPnXyGq9ZezCiwUSU-32" value="APP" style="shape=umlLifeline;perimeter=lifelinePerimeter;whiteSpace=wrap;html=1;container=1;collapsible=0;recursiveResize=0;outlineConnect=0;" vertex="1" parent="1">
          <mxGeometry x="890" y="770" width="100" height="450" as="geometry" />
        </mxCell>
        <mxCell id="YAcLPnXyGq9ZezCiwUSU-35" value="PendingIntent.getBroadcastAsUser" style="html=1;verticalAlign=bottom;endArrow=block;rounded=0;" edge="1" parent="1" source="YAcLPnXyGq9ZezCiwUSU-18" target="YAcLPnXyGq9ZezCiwUSU-30">
          <mxGeometry x="0.4652" width="80" relative="1" as="geometry">
            <mxPoint x="540" y="1060" as="sourcePoint" />
            <mxPoint x="620" y="1060" as="targetPoint" />
            <mxPoint as="offset" />
          </mxGeometry>
        </mxCell>
        <mxCell id="YAcLPnXyGq9ZezCiwUSU-36" value="setInexactRepeating" style="html=1;verticalAlign=bottom;endArrow=block;rounded=0;exitX=0.7;exitY=1;exitDx=0;exitDy=0;exitPerimeter=0;" edge="1" parent="1" source="YAcLPnXyGq9ZezCiwUSU-18" target="YAcLPnXyGq9ZezCiwUSU-31">
          <mxGeometry x="0.133" y="-10" width="80" relative="1" as="geometry">
            <mxPoint x="540" y="1060" as="sourcePoint" />
            <mxPoint x="620" y="1060" as="targetPoint" />
            <mxPoint as="offset" />
          </mxGeometry>
        </mxCell>
        <mxCell id="YAcLPnXyGq9ZezCiwUSU-37" value="Intent(AppWidgetManager.ACTION_APPWIDGET_UPDATE)" style="html=1;verticalAlign=bottom;endArrow=block;rounded=0;exitX=1;exitY=0.467;exitDx=0;exitDy=0;exitPerimeter=0;" edge="1" parent="1" source="YAcLPnXyGq9ZezCiwUSU-28" target="YAcLPnXyGq9ZezCiwUSU-32">
          <mxGeometry width="80" relative="1" as="geometry">
            <mxPoint x="570" y="1060" as="sourcePoint" />
            <mxPoint x="650" y="1060" as="targetPoint" />
          </mxGeometry>
        </mxCell>
        <mxCell id="YAcLPnXyGq9ZezCiwUSU-38" value="Intent(AppWidgetManager.ACTION_APPWIDGET_UPDATE)" style="html=1;verticalAlign=bottom;endArrow=block;rounded=0;" edge="1" parent="1" source="YAcLPnXyGq9ZezCiwUSU-31" target="YAcLPnXyGq9ZezCiwUSU-32">
          <mxGeometry width="80" relative="1" as="geometry">
            <mxPoint x="570" y="1060" as="sourcePoint" />
            <mxPoint x="650" y="1060" as="targetPoint" />
            <Array as="points">
              <mxPoint x="840" y="1110" />
            </Array>
          </mxGeometry>
        </mxCell>
        <mxCell id="YAcLPnXyGq9ZezCiwUSU-39" value="launcher" style="shape=umlLifeline;perimeter=lifelinePerimeter;whiteSpace=wrap;html=1;container=1;collapsible=0;recursiveResize=0;outlineConnect=0;" vertex="1" parent="1">
          <mxGeometry x="1040" y="770" width="100" height="490" as="geometry" />
        </mxCell>
      </root>
    </mxGraphModel>
  </diagram>
</mxfile>
